<?xml version="1.0" encoding="utf-8"?>
<!-- Generator: Adobe Illustrator 25.0.1, SVG Export Plug-In . SVG Version: 6.00 Build 0)  -->
<svg version="1.0" id="katman_1" xmlns="http://www.w3.org/2000/svg" xmlns:xlink="http://www.w3.org/1999/xlink" x="0px" y="0px"
	 viewBox="0 0 1200 800" style="enable-background:new 0 0 1200 800;" xml:space="preserve">
<style type="text/css">
	.st0{fill:#000000;}
	.st1{fill:#000000;}
</style>
<g>
	<path class="st0" d="M482.1,307.9h50.8v62.8c5-5.3,10.7-9.2,17.1-11.9c6.4-2.6,13.4-4,21.2-4c16,0,29.2,5.7,39.7,17.2
		c10.5,11.5,15.7,28,15.7,49.5c0,14.3-2.4,27-7.2,37.9c-4.8,10.9-11.4,19.1-19.8,24.5c-8.4,5.4-17.8,8.1-28.1,8.1
		c-8.8,0-16.9-1.9-24.2-5.7c-5.5-3-11.5-8.5-18-16.7v19.4h-47.1V307.9z M532.6,423.1c0,11.3,2.1,19.5,6.4,24.5
		c4.2,5.1,9.6,7.6,16.1,7.6c6,0,11.1-2.5,15.1-7.5c4.1-5,6.1-13.4,6.1-25.1c0-10.4-2-18-6-22.9c-4-4.9-8.8-7.3-14.5-7.3
		c-6.8,0-12.4,2.5-16.7,7.6C534.7,405.1,532.6,412.8,532.6,423.1L532.6,423.1z M653.3,307.9h50.4v181.1h-50.4V307.9z M880.3,489.1
		h-47v-21.3c-7,8.7-14.1,15-21.2,18.7c-7.1,3.7-15.9,5.6-26.3,5.6c-13.8,0-24.7-4.1-32.6-12.4c-7.9-8.3-11.8-21-11.8-38.2v-83.5
		h50.5V430c0,8.2,1.5,14.1,4.6,17.5c3,3.5,7.3,5.2,12.9,5.2c6,0,10.9-2.3,14.8-6.9c3.8-4.6,5.7-12.9,5.7-24.8v-63.1h50.3
		L880.3,489.1z M1061.5,436H960.7c0.9,8.1,3.1,14.1,6.5,18c4.9,5.7,11.2,8.5,19,8.5c4.9,0,9.6-1.2,14.1-3.7c2.7-1.6,5.6-4.3,8.8-8.3
		l49.5,4.6c-7.6,13.2-16.7,22.6-27.4,28.4c-10.7,5.7-26.1,8.6-46.1,8.6c-17.4,0-31.1-2.5-41-7.4c-10-4.9-18.2-12.7-24.8-23.4
		c-6.5-10.7-9.8-23.2-9.8-37.6c0-20.5,6.6-37.1,19.7-49.8c13.1-12.7,31.3-19,54.4-19c18.8,0,33.6,2.8,44.5,8.5
		c10.9,5.7,19.2,13.9,24.8,24.7c5.7,10.8,8.5,24.8,8.5,42.1L1061.5,436z M1010.4,411.9c-1-9.7-3.6-16.7-7.8-20.9
		c-4.2-4.2-9.8-6.3-16.7-6.3c-8,0-14.4,3.2-19.2,9.5c-3,4-5,9.8-5.8,17.7L1010.4,411.9z"/>
	<path class="st1" d="M231.6,472.9c-8.2,7-16.2,11.9-23.8,14.8c-7.6,2.9-15.8,4.3-24.5,4.3c-14.4,0-25.5-3.5-33.2-10.6
		c-7.7-7-11.6-16-11.6-27c0-6.4,1.5-12.3,4.4-17.6c2.9-5.3,6.8-9.6,11.5-12.8s10.1-5.6,16-7.3c4.4-1.2,11-2.3,19.8-3.3
		c18-2.1,31.2-4.7,39.7-7.7c0.1-3,0.1-5,0.1-5.8c0-9.1-2.1-15.4-6.3-19.2c-5.7-5-14.1-7.5-25.3-7.5c-10.5,0-18.2,1.8-23.2,5.5
		c-5,3.7-8.7,10.2-11.1,19.5l-21.7-3c2-9.3,5.2-16.8,9.8-22.5c4.5-5.7,11.1-10.1,19.6-13.2c8.6-3.1,18.5-4.6,29.8-4.6
		c11.2,0,20.3,1.3,27.3,4c7,2.6,12.2,6,15.4,9.9c3.3,4,5.6,9,6.9,15.1c0.7,3.8,1.1,10.6,1.1,20.5v29.7c0,20.7,0.5,33.8,1.4,39.2
		c0.9,5.5,2.8,10.7,5.6,15.8h-23.2C233.8,484.5,232.3,479.1,231.6,472.9L231.6,472.9z M229.8,423.2c-8.1,3.3-20.2,6.1-36.3,8.4
		c-9.1,1.3-15.6,2.8-19.4,4.4c-3.8,1.6-6.7,4.1-8.8,7.2c-2.1,3.2-3.1,6.7-3.1,10.6c0,5.9,2.2,10.9,6.7,14.8c4.5,4,11.1,5.9,19.7,5.9
		c8.6,0,16.2-1.9,22.9-5.6s11.6-8.9,14.7-15.4c2.4-5,3.6-12.4,3.6-22.2V423.2z M302.6,333.5v-25.6h22.2v25.6L302.6,333.5z
		 M302.6,489.1V357.9h22.2v131.2L302.6,489.1z M382.5,489.1V357.9h20v19.9c5.1-9.3,9.8-15.4,14.1-18.4c4.3-3,9.1-4.4,14.3-4.4
		c7.5,0,15.1,2.4,22.9,7.2l-7.7,20.6c-5.4-3.2-10.9-4.8-16.3-4.8c-4.9,0-9.2,1.5-13.1,4.4c-3.9,2.9-6.6,7-8.3,12.2
		c-2.5,7.9-3.7,16.6-3.7,25.9v68.7L382.5,489.1z"/>
</g>
</svg>
