<svg width="175" height="60" viewBox="0 0 319 195" fill="none" xmlns="http://www.w3.org/2000/svg">
<path d="M128.17 75.0626H141.67V90.3622C143.005 89.0771 144.522 88.1133 146.219 87.4708C147.916 86.8286 149.793 86.5073 151.852 86.507C156.1 86.507 159.614 87.9077 162.395 90.7085C165.176 93.5096 166.567 97.5302 166.567 102.77C166.567 106.264 165.932 109.341 164.662 112.001C163.391 114.662 161.634 116.649 159.39 117.965C157.145 119.28 154.655 119.937 151.918 119.937C149.574 119.937 147.429 119.475 145.48 118.552C144.013 117.829 142.414 116.474 140.684 114.486V119.215H128.17V75.0626ZM141.571 103.132C141.571 105.882 142.135 107.875 143.263 109.11C144.391 110.345 145.819 110.962 147.549 110.962C149.148 110.962 150.489 110.355 151.573 109.14C152.657 107.926 153.199 105.882 153.199 103.011C153.199 100.482 152.668 98.6244 151.606 97.4396C150.544 96.2551 149.257 95.6627 147.746 95.6627C145.929 95.6627 144.445 96.2802 143.296 97.5151C142.146 98.7497 141.571 100.622 141.571 103.132ZM173.657 75.0626H187.058V119.215H173.657V75.0626ZM234.013 119.215H221.531V114.034C219.67 116.163 217.792 117.679 215.898 118.582C214.004 119.485 211.678 119.937 208.919 119.937C205.24 119.937 202.355 118.928 200.264 116.91C198.173 114.893 197.127 111.786 197.127 107.589V87.2296H210.561V104.818C210.561 106.826 210.966 108.251 211.776 109.095C212.586 109.938 213.725 110.36 215.192 110.36C216.791 110.36 218.099 109.797 219.117 108.673C220.135 107.549 220.644 105.531 220.644 102.62V87.2296H234.013L234.013 119.215ZM282.192 106.264H255.39C255.631 108.232 256.211 109.697 257.131 110.661C258.423 112.047 260.109 112.739 262.189 112.739C263.503 112.739 264.751 112.438 265.933 111.836C266.656 111.454 267.434 110.782 268.265 109.818L281.437 110.932C279.422 114.145 276.992 116.449 274.145 117.844C271.298 119.24 267.214 119.937 261.894 119.937C257.273 119.937 253.638 119.34 250.989 118.145C248.339 116.951 246.144 115.053 244.403 112.453C242.662 109.853 241.792 106.796 241.792 103.282C241.792 98.2829 243.538 94.2372 247.031 91.1451C250.523 88.0532 255.346 86.5073 261.499 86.507C266.492 86.507 270.434 87.2 273.324 88.5853C276.214 89.9706 278.415 91.9784 279.926 94.6089C281.437 97.2388 282.192 100.662 282.192 104.879V106.264ZM268.594 100.391C268.331 98.0218 267.636 96.3254 266.508 95.3013C265.381 94.2774 263.897 93.7653 262.058 93.7653C259.934 93.7653 258.237 94.5383 256.967 96.0845C256.156 97.0483 255.642 98.4837 255.423 100.391L268.594 100.391Z" fill="black"/>
<path d="M61.5732 115.269C59.3834 116.976 57.2759 118.18 55.2505 118.883C53.2253 119.586 51.0516 119.937 48.7307 119.937C44.8988 119.937 41.9532 119.079 39.8951 117.362C37.8367 115.646 36.8077 113.452 36.8077 110.782C36.8077 109.216 37.1963 107.785 37.9737 106.49C38.7512 105.195 39.769 104.156 41.0282 103.373C42.2875 102.589 43.7054 101.997 45.2817 101.596C46.4425 101.315 48.1943 101.044 50.5373 100.783C55.3107 100.261 58.8253 99.6383 61.0806 98.9155C61.1023 98.1727 61.1135 97.7008 61.1135 97.5C61.1135 95.2913 60.555 93.7354 59.4384 92.832C57.9276 91.6071 55.6831 90.9947 52.705 90.9947C49.9241 90.9947 47.8713 91.4413 46.5465 92.3347C45.2218 93.2285 44.2418 94.8097 43.6066 97.0782L37.8265 96.3554C38.3517 94.0866 39.2168 92.2544 40.421 90.8592C41.6252 89.4636 43.3662 88.3896 45.6436 87.6366C47.9207 86.8835 50.5593 86.5073 53.5592 86.507C56.5373 86.507 58.957 86.8286 60.8181 87.4708C62.6796 88.1133 64.0482 88.9216 64.9241 89.8954C65.8 90.8694 66.4128 92.0989 66.7632 93.5848C66.9604 94.5084 67.0589 96.1748 67.0589 98.5843V105.812C67.0589 110.852 67.1847 114.039 67.4366 115.374C67.6882 116.71 68.1867 117.99 68.9313 119.215H62.756C62.1426 118.09 61.7484 116.775 61.5732 115.269V115.269ZM61.0806 103.162C58.9346 103.965 55.7157 104.648 51.424 105.21C48.9935 105.531 47.2743 105.893 46.2673 106.294C45.26 106.696 44.4825 107.283 43.9352 108.056C43.3876 108.829 43.114 109.687 43.114 110.631C43.114 112.077 43.7107 113.281 44.904 114.245C46.0974 115.209 47.844 115.691 50.1431 115.691C52.4205 115.691 54.446 115.234 56.2196 114.32C57.9931 113.407 59.2961 112.157 60.1283 110.571C60.7632 109.346 61.0806 107.539 61.0806 105.15V103.162ZM80.4347 81.2968V75.0626H86.3468V81.297L80.4347 81.2968ZM80.4347 119.215V87.2296H86.3468V119.214L80.4347 119.215ZM101.693 119.215V87.2296H107.014V92.0784C108.371 89.8096 109.625 88.3138 110.774 87.591C111.924 86.8684 113.189 86.507 114.568 86.5067C116.561 86.5067 118.586 87.0892 120.645 88.2537L118.608 93.2834C117.163 92.5002 115.718 92.1086 114.273 92.1086C112.98 92.1086 111.82 92.4652 110.791 93.1778C109.762 93.8906 109.028 94.8795 108.59 96.1443C107.933 98.0719 107.605 100.18 107.605 102.469V119.214L101.693 119.215Z" fill="black"/>
</svg>
