<svg xmlns="http://www.w3.org/2000/svg" xmlns:xlink="http://www.w3.org/1999/xlink" version="1.1" width="2500" height="2500" viewBox="0 0 2500 2500">
<defs>
<clipPath id="clip_0">
<path transform="matrix(1,0,0,-1,0,2500)" d="M0 2500H2500V0H0Z"/>
</clipPath>
</defs>
<g id="layer_1" data-name="katman 1">
<path transform="matrix(1,0,0,-1,0,2500)" d="M0 0H2500V2500H0Z" fill="#ffffff"/>
<g clip-path="url(#clip_0)">
<path transform="matrix(1,0,0,-1,959.7368,1562.0527)" d="M0 0V186.921C0 259.059-59.013 278.746-104.938 278.746-160.696 278.746-180.358 229.578-186.92 213.158-200.059 259.059-245.972 278.746-282.054 278.746-354.191 278.746-370.585 213.158-370.585 213.158-370.585 213.158-373.867 275.452-429.624 275.452H-485.381C-485.381 275.452-452.593 262.353-452.593 206.596V-.013C-452.593-48.39-439.662-64.434-431.945-69.673H-337.421C-346.267-62.099-370.585-39.583-370.585-.013V183.613C-367.304 193.444-354.191 219.682-314.828 219.682-291.872 219.682-268.915 196.726-268.915 170.487V-.013C-268.915-68.908-242.677-68.908-242.677-68.908H-150.852C-150.852-68.908-183.639-45.938-183.639-.013V183.613C-180.345 193.444-170.514 219.682-134.445 219.682-108.194 219.682-85.263 196.726-85.263 170.487V-.013C-85.263-72.177-55.731-68.908-55.731-68.908H36.095C36.095-68.908 0-45.926 0 0M160.721 0C160.721-45.926 196.803-68.896 196.803-68.896H104.964C104.964-68.896 75.445-72.163 75.445 0V206.608C75.445 262.365 45.926 275.465 45.926 275.465H101.683C121.371 275.465 160.721 275.465 160.721 200.033ZM442.775 249.24C442.775 249.24 436.211 275.452 396.848 275.452 337.823 275.452 324.71 206.596 324.71 206.596 321.443 262.353 305.023 278.733 265.686 278.733H209.941C209.941 278.733 242.716 265.608 242.716 206.596V-.013C242.716-68.908 268.967-68.908 268.967-68.908H360.78C357.538-68.908 324.71-45.938 324.71-.013V170.487C328.005 186.907 337.836 196.726 347.667 206.583 377.173 226.245 419.832 219.682 442.788 193.432ZM872.398 239.409C901.93 239.409 924.886 222.989 924.886 222.989V275.452H849.455V357.46C849.455 357.46 829.818 321.404 787.161 288.564 760.923 265.608 705.192 239.396 705.192 239.396H764.191V-3.333C764.191-68.921 793.723-68.921 793.723-68.921H885.575C885.575-68.921 849.455-45.951 849.455-3.333V239.396ZM1095.414 154.12C1108.565 183.626 1121.677 255.803 1069.202 252.509 1010.176 245.972 1020.007 85.264 1020.007 85.264 1039.682 108.194 1072.483 111.462 1095.414 154.12M118.077 304.972C141.033 304.972 160.721 324.685 160.721 347.642 160.721 370.572 141.033 390.26 118.077 390.26 95.12 390.26 75.445 370.572 75.445 347.642 75.445 324.686 95.133 304.972 118.077 304.972M593.652 167.245C570.682 131.177 406.706 124.614 432.944-6.602 440.622-45.03 462.359-63.448 491.813-69.647H541.332C569.424-63.162 585.766-45.303 593.639-29.545 600.202-68.882 619.851-68.882 619.851-68.882H711.703C711.703-68.882 675.634-45.912 675.634 .014V193.471C675.634 239.422 623.145 278.76 570.657 278.76 518.194 278.76 482.125 252.521 482.125 252.521V190.202C482.125 190.202 501.788 239.422 551.007 239.422 596.908 239.422 600.202 216.466 600.202 203.354 600.202 203.34 603.47 190.202 593.652 167.245M1354.537 22.931C1354.537 0 1331.567-32.826 1285.654-32.826 1236.459-32.826 1220.066 16.368 1220.066 16.368V-45.926C1220.066-45.926 1241.492-63.098 1277.469-69.66H1330.062C1380.826-59.479 1427.387-19.104 1429.968 33.333V42.605C1429.968 65.575 1423.406 85.264 1410.28 104.926 1387.324 131.163 1347.96 150.852 1318.428 170.514 1302.034 180.371 1292.229 200.02 1292.229 206.608 1292.229 219.708 1298.766 242.678 1344.666 242.678 1390.591 242.678 1410.28 193.457 1410.28 193.457V252.509C1410.28 252.509 1374.21 278.746 1321.749 278.746 1265.992 278.746 1216.771 242.678 1216.771 196.752 1220.065 154.12 1236.459 127.869 1269.259 104.926 1282.385 95.095 1298.766 85.264 1318.428 75.394 1344.679 59.025 1354.536 42.619 1354.536 22.931ZM-580.514-22.969H-682.171C-714.958-22.969-711.69 3.269-714.958 26.226V173.808H-665.777C-639.526 173.808-603.444 177.103-570.657 157.414-570.657 157.414-593.626 219.708-665.777 219.708H-714.958V265.634C-714.958 265.634-714.958 304.972-724.802 318.136H-655.92C-600.176 318.136-554.25 318.136-505.056 288.577-505.056 288.577-514.913 364.022-629.682 364.022H-849.429C-849.429 364.022-810.066 331.235-813.347 265.634L-810.079-3.307C-810.079-49.104-797.291-64.537-789.574-69.647H-546.157C-512.449-61.14-498.493-32.969-498.493-16.406V9.831C-498.493 9.831-514.926-22.969-580.514-22.969M537.895-29.558C518.207-29.558 501.8-9.87 501.8 13.1 501.8 98.363 573.964 111.463 593.652 134.432V-9.883C583.821-19.675 577.232-29.558 537.895-29.558M1120.185-69.323C1165.709-61.904 1180.703-42.645 1180.703-42.645V13.112C1144.608-52.501 1085.608-29.545 1072.483-22.956 1029.826-6.589 1026.531 49.169 1026.531 49.169 1059.358 88.558 1098.695 78.701 1151.183 134.458 1216.772 203.354 1167.578 278.772 1075.751 278.772 980.631 278.772 928.142 190.215 928.142 95.12 928.142 11.297 976.545-54.72 1050.927-69.206 1069.344-72.747 1101.625-72.268 1120.186-69.323ZM317.202 531.981C317.202 493.448 341.04 474.188 341.04 474.188H280.38C280.38 474.188 260.887 471.438 260.887 531.981V705.296C260.887 752.078 241.406 763.076 241.406 763.076H278.227C291.223 763.076 317.202 763.076 317.202 699.784ZM557.544 706.658 518.336 706.671C518.336 706.671 535.612 695.698 525.353 648.981H525.405L494.9 511.722C494.9 511.722 491.761 492.436 486.002 492.54 465.834 492.89 456.691 525.678 453.28 536.819 450.998 544.147 428.612 672.482 427.691 676.374 420.544 705.607 403.58 706.632 393.373 706.658H353.375C353.375 706.658 363.983 700.588 369.457 678.475 370.196 675.569 396.693 536.391 396.693 536.391 396.693 536.391 402.167 507.17 419.39 492.644 440.012 475.238 458.027 474.188 470.439 474.188 479.453 474.188 486.729 479.324 486.729 479.324L481.788 459.817C472.826 421.349 444.551 402.115 444.551 402.115 444.551 402.115 505.47 402.076 506.028 402.115 509.802 402.439 525.223 407.057 537.441 457.444L581.953 647.879C593.016 703.636 570.799 706.528 557.544 706.658ZM114.795 474.175C107.597 474.175 92.448 496.379 93.084 519.556L93.239 637.127H123.303C139.36 637.127 161.382 639.293 181.434 626.258 181.434 626.258 167.414 667.515 123.303 667.515H93.239V697.929C93.239 697.929 93.239 723.985 87.234 732.688H129.321C163.419 732.688 191.485 732.688 221.549 713.143 221.549 713.143 215.505 763.089 145.352 763.089H11.063C11.063 763.089 35.109 741.378 33.099 697.942L35.109 519.802C35.109 476.393 51.14 474.227 51.14 474.227L114.795 474.175Z" fill="#6884c0" fill-rule="evenodd"/>
</g>
</g>
</svg>
