<svg width="175" height="60" viewBox="0 0 264 84" fill="none" xmlns="http://www.w3.org/2000/svg">
<rect width="50" height="50" fill="white"/>
<path d="M218.477 3.1584C218.65 2.9412 218.993 2.66327 218.939 3.1584C221.723 3.31955 224.508 3.20277 227.299 3.21445C228.961 3.15373 230.627 3.26583 232.283 3.11169C232.861 3.95947 233.805 4.9287 233.538 5.99369C233.666 6.11981 233.822 6.21089 234.006 6.26694C241.525 23.4142 248.992 40.5824 256.621 57.6876C257.35 59.2126 257.91 60.8428 258.987 62.1927C259.598 62.8934 260.367 63.4539 260.964 64.1709C260.905 64.2573 260.787 64.4278 260.731 64.5142C255.309 64.8785 249.868 64.5889 244.439 64.7291C244.649 64.2083 244.906 63.7061 245.239 63.246C245.42 62.6014 245.476 61.9055 245.266 61.2609C242.895 55.9079 240.416 50.5923 238.109 45.2137C237.61 44.9287 237.047 44.7816 236.472 44.7396C229.041 43.8194 221.474 43.8918 214.055 44.882C213.329 44.8914 212.996 45.5617 212.771 46.1152C210.747 51.0314 208.761 55.964 206.683 60.8615C206.289 61.8844 206.311 63.2414 207.229 64.0074C207.298 64.1662 207.337 64.332 207.346 64.5049C206.686 64.7478 205.967 64.6777 205.277 64.6964C203.356 64.68 201.433 64.7291 199.515 64.6777C199.001 64.5189 198.489 64.3461 198.029 64.0821C197.998 63.3978 198.377 62.7556 198.299 62.0596C201.276 55.0998 204.068 48.049 207.001 41.0612C210.716 32.0111 214.461 22.9704 218.163 13.9157C218.875 12.1594 219.653 10.4195 220.189 8.60477C220.463 7.58416 220.747 6.41875 220.133 5.45419C219.688 4.47562 218.477 4.22105 217.784 3.45033C217.958 3.37793 218.305 3.2308 218.477 3.1584ZM224.955 16.3656C222.23 23.0265 219.487 29.678 216.739 36.3318C216.394 37.2263 215.851 38.1325 215.986 39.118C220.86 39.7393 225.804 39.6622 230.713 39.5781C232.271 39.4286 233.881 39.5291 235.393 39.0923C235.126 37.997 234.564 36.9997 234.133 35.9628C231.941 30.9041 229.685 25.8711 227.488 20.8147C226.822 19.3294 226.247 17.7996 225.423 16.3843C225.305 16.3796 225.073 16.3703 224.955 16.3656Z" fill="black"/>
<path d="M75.3342 3.56008C78.855 2.72631 82.4345 3.81465 85.9921 3.62314C86.7677 3.99449 86.9267 4.95438 86.3615 5.55927C84.1619 7.1731 82.344 9.21899 80.1469 10.8305C79.868 11.4097 79.5425 12.0029 79.5474 12.6568C79.6624 15.4267 79.5792 18.2036 79.6061 20.9759C79.5597 22.3959 79.7652 23.8462 79.3566 25.2358C79.1755 26.17 78.5541 26.9361 77.9424 27.6531C76.812 28.982 75.6033 30.2852 74.1426 31.2941C73.6117 31.6748 72.9438 31.6561 72.4813 31.1937C72.7333 29.7153 73.5897 28.356 73.5554 26.8286C73.3866 23.4001 73.6313 19.9599 73.4209 16.5338C73.4747 15.4291 73.8784 14.3057 74.6858 13.4976C76.2297 12.0309 77.7809 10.5712 79.2979 9.07886C79.2465 8.9364 79.1486 8.6538 79.0972 8.51134C76.8267 8.31749 74.4974 8.10963 72.2734 8.73087C71.3926 9.02281 70.6463 9.6207 69.741 9.84023C68.8896 10.0831 68.3733 8.85232 68.9776 8.34552C70.1961 7.17543 71.439 6.01703 72.819 5.01743C73.5775 4.41955 74.3408 3.76561 75.3342 3.56008Z" fill="black"/>
<path d="M51.4249 3.98285C51.9485 3.52743 52.9492 3.24717 53.419 3.90578C53.6417 4.53169 53.3211 5.16228 52.9908 5.6901C52.4061 6.62897 52.0048 7.72665 52.1223 8.83134C52.1712 10.6297 54.454 11.8441 56.1324 11.2509C57.987 10.228 59.4624 8.69355 60.8521 7.16146C61.4026 6.53555 62.3495 6.12917 63.1838 6.46548C64.9895 7.13811 66.46 8.47868 67.49 10.0224C69.0682 12.4747 70.1178 15.282 70.2328 18.1757C70.294 19.9927 69.8609 21.8587 68.7795 23.3745C67.5708 24.9159 65.8728 26.0229 64.5785 27.4873C64.2237 27.8399 64.3998 28.307 64.5295 28.7111C65.4691 29.1361 66.4062 29.5846 67.4166 29.8391C67.3139 29.9816 67.2185 30.1264 67.1255 30.2735C67.3408 30.2245 67.5341 30.1311 67.7078 29.9979C71.1944 31.3759 74.7494 32.7748 77.7075 35.0636C79.9511 36.6961 81.5488 39.2722 81.5293 42.0094C81.3996 45.0455 80.4723 48.07 78.7376 50.6274C76.7411 53.7733 73.6998 56.1788 70.4701 58.1173C64.2849 61.6743 57.2481 63.6501 50.1722 64.8179C46.6563 65.4087 43.0939 65.6516 39.5339 65.8712C40.3487 67.8984 42.1666 69.4048 44.2708 70.1544C46.9206 71.1517 49.8052 71.3642 52.6263 71.4553C54.4907 71.6515 56.3526 71.3899 58.2195 71.3993C60.5194 71.3549 62.8119 71.1727 65.107 71.07C72.0825 70.4744 79.0214 68.9096 85.3755 66.0627C89.0407 64.3391 92.7205 62.153 94.925 58.7666C96.4371 56.4825 96.6817 53.4767 95.5269 51.0057C94.5849 49.1583 92.8086 47.8668 90.9662 46.8929C88.566 45.7205 86.1217 44.6298 83.7484 43.406L83.8488 43.1468C83.9295 42.9483 84.0102 42.7497 84.091 42.5512C83.6432 42.3504 83.2689 42.0421 82.99 41.6544C83.1465 41.4629 83.3056 41.2714 83.4671 41.0822C83.4083 40.6782 83.3888 40.2671 83.4573 39.8631C83.4768 39.8094 83.5136 39.6973 83.5331 39.6435C84.7589 38.7654 85.6593 37.5579 86.7775 36.5677C87.854 35.6382 88.8131 34.5895 89.6744 33.4778C90.357 32.4642 90.1319 31.1914 89.8383 30.0937C89.2242 27.8306 87.6265 26.0042 86.2196 24.1545C85.7498 23.6384 85.2091 22.9377 84.4188 22.9891C83.5454 23.267 82.5691 23.552 81.6932 23.1269C81.6174 22.8817 81.5415 22.6388 81.4656 22.3936C81.5439 22.16 81.6247 21.9265 81.7054 21.6929C82.8921 20.8895 83.8732 19.8525 84.9914 18.9721C86.0557 18.0309 87.1812 17.1574 88.2112 16.1835C88.8988 15.5319 90.1343 15.5879 90.7974 16.2535C92.6275 17.8744 94.4406 19.6026 95.6199 21.7303C96.6401 23.6267 97.105 25.9342 96.2903 27.9777C95.6199 29.7901 94.1151 31.133 92.9383 32.6441C92.2165 33.5315 91.7296 34.5708 90.9785 35.4373C90.6017 35.8904 90.22 36.507 90.5258 37.0862C90.9148 38.0601 91.9938 38.5038 92.7401 39.1905C96.0187 41.9206 99.0012 45.3375 99.9041 49.5017C100.709 52.9932 99.6618 56.6483 97.7216 59.633C94.7488 63.9794 91.2892 68.1576 86.7383 71.0887C82.3979 73.9193 77.48 75.783 72.6942 77.8032C66.7634 80.3162 60.3334 81.7852 53.8423 81.9767C50.6396 82.0351 47.4148 81.7268 44.3124 80.9421C41.2956 80.1013 38.1907 78.7608 36.3459 76.2221C34.9904 74.4471 34.6063 72.1139 35.0736 69.9863C35.3232 68.6317 35.9887 67.3986 36.4902 66.1211C32.8789 65.7707 29.2259 65.6166 25.688 64.7851C22.8596 64.1639 20.1095 63.1106 17.7264 61.5131C16.2804 60.5065 14.8075 59.3434 14.1689 57.6922C13.3688 55.7188 13.6796 53.5514 14.1836 51.5476C14.5212 50.3821 14.7855 49.1537 15.6125 48.1985C14.9127 47.6963 14.0001 47.8832 13.1878 47.8108C11.4188 47.6566 9.60333 47.5842 7.92734 46.97C6.92419 46.6197 6.01156 46.0755 5.14298 45.494C4.16919 44.861 3.10977 44.2702 2.42469 43.329C1.73716 42.0841 1.79344 40.4983 2.55436 39.2932C3.24189 38.324 4.26461 37.6514 5.14298 36.8573C6.63303 35.4723 8.2185 34.1878 9.73301 32.8286C10.9172 31.871 11.9204 30.6869 13.3077 29.9863C14.9983 29.1268 16.9068 28.6293 18.8274 28.6457C21.3671 28.6527 23.9068 28.6293 26.4489 28.6644C28.0099 28.7251 28.6705 26.7469 30.2682 26.9314C30.5129 27.2771 30.7356 27.6391 30.9313 28.0128C30.7869 28.2814 30.7013 28.5896 30.4689 28.8068C29.1623 30.0493 27.8411 31.2755 26.5688 32.5506C25.206 33.9169 23.2755 34.8021 21.2839 34.8021C17.4524 34.8091 13.6233 34.7974 9.79173 34.8021C8.54391 35.4607 7.60927 36.876 8.03499 38.2539C8.39466 39.807 10.171 40.6571 11.7344 40.5871C26.3388 40.5894 40.9432 40.5894 55.5477 40.5871C57.0108 40.5007 58.4886 40.844 59.9322 40.468C60.9059 40.3512 61.6008 39.2979 62.6431 39.6599C62.7361 39.9775 62.8388 40.2928 62.9465 40.6081C62.5868 41.269 61.9507 41.7151 61.41 42.2289C59.9958 43.5321 58.5204 44.7723 57.138 46.1059C55.9196 47.346 54.131 47.9859 52.3767 48.0723C41.0582 48.1191 29.7349 48.0256 18.4164 48.1191C18.1424 48.731 17.6922 49.4082 17.9735 50.0902C18.4408 50.9123 19.0892 51.6433 19.8575 52.2272C22.2553 54.0279 25.25 54.871 28.1836 55.4875C34.2808 56.681 40.5371 56.751 46.7395 56.7067C52.0562 56.744 57.3876 56.6343 62.6602 55.9126C65.9731 55.4455 69.3031 54.7589 72.3272 53.3365C73.9273 52.5145 75.5495 51.5242 76.489 49.9898C77.8176 47.9859 77.9424 45.202 76.5991 43.1795C75.1385 41.2924 72.8361 40.2975 70.754 39.1741C66.3743 36.8153 61.4589 35.6662 56.7294 34.1411C56.0566 33.7744 55.6553 33.1602 55.4718 32.4549C55.7116 31.8033 55.9465 31.0769 56.5728 30.6659C57.4365 30.0937 58.3271 29.5519 59.1003 28.8676C60.972 27.4733 62.9196 26.0696 64.2555 24.1639C65.1657 22.9401 64.8207 21.2982 64.2212 20.0207C63.0688 17.8183 62.1293 15.4268 60.26 13.6635C59.5382 13.0539 58.7773 12.3486 57.7521 12.3066C56.1202 13.7896 54.432 15.2283 52.8881 16.8071C52.3376 17.1924 51.9167 17.9468 51.1656 17.9258C50.3117 17.6829 50.2774 16.7066 50.2701 16.0013C48.9048 15.3147 47.334 14.3805 47.1163 12.783C46.6979 10.945 47.1554 8.9995 48.2026 7.42537C49.0345 6.09414 50.1991 4.98712 51.4249 3.98285Z" fill="black"/>
<path d="M170.974 3.15369C174.416 3.20507 177.859 3.19806 181.301 3.19339C183.851 3.22375 186.4 3.05092 188.945 3.27513C188.668 3.54371 188.382 3.80062 188.103 4.06219C186.953 5.30468 186.571 6.97689 186.527 8.59072C186.53 24.9439 186.527 41.2993 186.527 57.6525C186.664 58.9931 186.841 60.371 187.418 61.6111C188.086 62.7088 189.118 63.6407 190.31 64.2035C189.84 64.2783 189.368 64.332 188.896 64.3273C182.921 64.3273 176.946 64.3273 170.971 64.3273C171.468 63.3791 172.613 62.9774 173.146 62.0596C173.643 61.2094 173.978 60.2496 173.951 59.2663C173.949 42.5418 173.949 25.815 173.951 9.09052C173.986 7.93678 173.88 6.734 173.313 5.69471C172.757 4.70446 171.823 3.99447 170.952 3.2728C170.873 3.3452 170.717 3.48766 170.638 3.56006C170.749 3.4246 170.859 3.28915 170.974 3.15369Z" fill="black"/>
<path d="M116.407 3.39422C120.664 3.18169 124.936 3.48064 129.194 3.21906C133.14 3.15367 137.082 3.35219 141.028 3.42926C144.784 3.60909 148.621 3.81695 152.163 5.14585C155.748 6.40234 158.955 8.8336 160.685 12.122C162.643 15.756 163.068 20.1397 161.698 24.026C160.587 27.7324 157.906 30.9087 154.5 32.9382C149.866 35.7385 144.312 36.7638 138.907 37.0277L138.868 36.6307C138.865 36.7498 138.863 36.988 138.863 37.1048C136.402 37.2145 133.952 36.939 131.496 36.9646C131.452 43.7796 131.489 50.5969 131.479 57.4142C131.618 59.2266 131.902 61.137 133.025 62.6598C133.519 63.4165 134.249 63.9887 134.799 64.701C128.614 64.6917 122.426 64.701 116.241 64.6987C116.05 64.694 115.869 64.6519 115.683 64.6286C116.493 64.005 117.356 63.4258 118.02 62.6504C118.619 61.7256 118.756 60.6022 118.822 59.5372C118.822 42.6352 118.824 25.7309 118.82 8.82892C118.709 7.53506 118.614 6.11741 117.719 5.06644C117.344 4.55497 116.813 4.18596 116.307 3.80294C116.331 3.70251 116.383 3.49699 116.407 3.39422ZM131.479 9.45717C131.491 16.6412 131.445 23.8298 131.503 31.0115C131.792 31.3968 132.308 31.7238 132.805 31.8639C135.384 31.9503 138.007 32.0975 140.537 31.4856C140.63 31.0582 140.977 31.1212 141.285 31.3034C142.719 30.8853 144.065 30.1894 145.193 29.2412C147.378 27.2934 148.476 24.4814 148.909 21.7115C149.536 18.1149 148.515 14.0721 145.577 11.5965C143.057 9.43615 139.56 8.84994 136.287 8.69113C134.667 8.69113 132.942 8.70748 131.479 9.45717Z" fill="black"/>
<path d="M52.9174 17.7762C53.375 17.3815 53.9622 17.6104 54.4222 17.8626C54.476 19.0724 53.2869 19.9763 53.375 21.2071C53.4068 24.8761 53.3505 28.5475 53.4043 32.2166C53.6001 33.1088 53.5683 34.0943 52.9811 34.8557C51.6598 36.2196 50.1624 37.4364 48.9366 38.8774C48.851 38.8774 48.6797 38.8751 48.5965 38.8751C48.0999 38.8377 47.6203 38.9732 47.153 39.1133C46.9426 38.9965 46.7346 38.8798 46.5266 38.7653C46.8741 37.684 47.3536 36.605 47.3243 35.4513C47.0992 32.8145 47.2533 30.1637 47.2093 27.5199C47.2631 26.2004 46.9964 24.8247 47.5347 23.5659C47.9433 22.3118 49.1201 21.5364 50.0181 20.6162C50.9527 19.6376 52.0464 18.8085 52.9174 17.7762Z" fill="black"/>
<path d="M109.055 31.203C109.341 31.0536 109.681 31.168 109.992 31.1516C110.949 32.1092 111.881 33.0854 112.82 34.057C113.263 34.4681 113.29 35.15 113.023 35.6568C112.473 36.3271 111.793 36.8876 111.23 37.5462C110.643 38.1581 110.073 39.0153 109.069 38.8728C107.944 37.9596 107.117 36.7685 106.009 35.846C105.368 35.6288 104.452 35.5704 103.978 36.1263C103.2 36.8876 102.463 37.6887 101.695 38.4594C101.284 38.9125 100.491 38.9849 100.056 38.5271C99.2043 37.6957 98.4042 36.8199 97.5895 35.9581C97.4329 35.7783 97.2739 35.6008 97.1124 35.4233C97.0806 34.9749 97.0732 34.4844 97.4402 34.1481C98.3113 33.1835 99.2141 32.2306 100.176 31.3502C101.034 30.7196 101.913 31.6117 102.417 32.2306C103.325 33.0644 104.032 34.2065 105.199 34.7156C106.772 33.8982 107.572 32.1606 109.055 31.203Z" fill="black"/>
<path d="M104.029 38.7607C104.482 38.3356 105.326 38.1464 105.793 38.6532C106.674 39.5174 107.511 40.4235 108.372 41.3064C108.893 41.7945 108.832 42.6656 108.333 43.1491C107.472 44.0389 106.591 44.91 105.722 45.7929C105.441 46.1058 104.971 46.0404 104.592 46.0194C103.892 45.5523 103.418 44.8446 102.772 44.3192C102.167 43.4503 100.792 42.7053 101.428 41.4932C102.294 40.5824 103.212 39.7136 104.029 38.7607Z" fill="black"/>
<path d="M46.5266 38.7653C46.7346 38.8798 46.9426 38.9965 47.153 39.1133C47.6203 38.9732 48.0999 38.8377 48.5965 38.8751L48.8045 38.9732C48.2393 39.4987 47.6888 40.4515 46.7395 40.1059C46.0642 39.9237 46.2966 39.2067 46.5266 38.7653Z" fill="black"/>
<path d="M83.746 43.3943C82.3636 42.7007 82.2021 40.7482 83.4573 39.863C83.3888 40.2671 83.4083 40.6781 83.4671 41.0822C83.3056 41.2713 83.1465 41.4629 82.99 41.6544C83.2689 42.0421 83.6432 42.3503 84.091 42.5512C84.0102 42.7497 83.9295 42.9482 83.8488 43.1467L83.746 43.3943Z" fill="black"/>
<path d="M15.9868 60.7517C16.1018 60.8755 16.1018 60.8755 15.9868 60.7517V60.7517Z" fill="#C1D4CE"/>
<path d="M195.123 64.3927C196.339 63.8369 197.467 63.0872 198.298 62.0596C198.377 62.7555 197.998 63.3978 198.029 64.0821C198.489 64.346 199.001 64.5188 199.515 64.6777C198.056 64.7197 196.598 64.673 195.142 64.7057C195.137 64.6263 195.128 64.4721 195.123 64.3927Z" fill="#0D3427"/>
<path d="M133.982 70.8784C134.41 70.869 134.841 70.862 135.271 70.848C135.35 72.8799 135.271 74.9141 135.328 76.9483C136.34 75.8366 137.512 74.8768 138.599 73.8351C139.245 73.653 139.944 73.716 140.612 73.6132C139.555 74.6432 138.41 75.5891 137.385 76.6517C138.508 78.2212 139.57 79.8257 140.634 81.4325C140.072 81.4675 139.509 81.5072 138.951 81.4558C137.992 80.2274 137.256 78.8611 136.387 77.5789C136.027 77.8966 135.665 78.2095 135.303 78.5201C135.306 79.5057 135.291 80.4936 135.328 81.4815C134.88 81.4745 134.432 81.4675 133.989 81.4629C133.992 77.9339 134.004 74.405 133.982 70.8784Z" fill="black"/>
<path d="M183.98 74.6993C184.964 73.6156 186.657 73.1719 188.027 73.8445C188.91 74.2298 189.192 75.2645 189.216 76.1169C189.226 77.9036 189.199 79.6902 189.229 81.4792C188.759 81.4769 188.294 81.4792 187.829 81.4862C187.797 79.7743 187.829 78.0624 187.812 76.3528C187.822 75.6755 187.477 74.8698 186.689 74.774C185.938 74.5638 185.236 74.9141 184.643 75.3135C184.347 75.7596 184.022 76.229 184.046 76.7802C184.005 78.3473 184.051 79.9144 184.022 81.4815C183.569 81.4769 183.119 81.4769 182.671 81.4815C182.696 78.8915 182.681 76.3014 182.681 73.7114C183.124 73.716 183.569 73.7254 184.017 73.7347C184.005 74.0547 183.993 74.377 183.98 74.6993Z" fill="black"/>
<path d="M196.282 74.4704C197.804 73.0457 200.62 73.3073 201.795 75.0215C202.345 75.923 202.353 77.0067 202.411 78.0203C200.43 77.997 198.448 77.9759 196.466 78.032C196.559 78.8891 196.769 79.8513 197.579 80.3628C198.842 80.9864 200.549 80.3932 200.943 79.0456C201.401 79.0433 201.858 79.0409 202.321 79.0433C202.035 79.7369 201.761 80.5053 201.117 80.9794C199.497 82.2265 196.723 81.9696 195.644 80.1807C194.621 78.4127 194.785 75.9581 196.282 74.4704ZM197.726 74.9375C196.943 75.3392 196.6 76.1753 196.463 76.967C197.973 77.0161 199.488 77.0067 201 76.9717C200.855 76.3154 200.716 75.5821 200.141 75.136C199.483 74.5918 198.48 74.5965 197.726 74.9375Z" fill="black"/>
<path d="M141.647 70.8761C142.105 70.8644 142.565 70.8691 143.025 70.8527C143.037 71.3432 143.042 71.8336 143.047 72.3241C142.58 72.3591 142.112 72.3661 141.647 72.3965C141.652 71.8897 141.652 71.3829 141.647 70.8761Z" fill="#242424"/>
<path d="M178.818 70.7149C179.405 70.7243 179.995 70.7219 180.587 70.7032C180.538 74.2906 180.584 77.8779 180.562 81.4652C179.987 81.4722 179.41 81.4722 178.837 81.4699C178.852 77.8849 178.889 74.2999 178.818 70.7149Z" fill="#242021"/>
<path d="M230.509 70.855C230.95 70.8597 231.393 70.8644 231.838 70.8691C231.845 71.3548 231.858 71.8406 231.87 72.3264C231.393 72.3451 230.918 72.3684 230.446 72.3895C230.465 71.878 230.478 71.3665 230.509 70.855Z" fill="black"/>
<path d="M226.472 71.572C226.945 71.572 227.417 71.5744 227.894 71.5767C227.872 72.2914 227.865 73.006 227.879 73.7207C228.305 73.7207 228.731 73.7207 229.164 73.7207C229.159 74.078 229.154 74.4377 229.154 74.7997C228.723 74.788 228.3 74.781 227.877 74.774C227.882 76.3107 227.874 77.8452 227.872 79.3819C227.899 79.6995 227.83 80.0615 228.043 80.3371C228.381 80.5053 228.794 80.4142 229.169 80.4562C229.159 80.8136 229.152 81.1709 229.139 81.5306C228.53 81.5329 227.911 81.631 227.316 81.4909C226.746 81.269 226.477 80.6244 226.497 80.0686C226.463 78.3076 226.494 76.5466 226.475 74.7857C226.127 74.7857 225.785 74.7833 225.445 74.7857C225.442 74.4307 225.442 74.0757 225.445 73.723C225.785 73.723 226.127 73.723 226.475 73.7253C226.485 73.0084 226.48 72.289 226.472 71.572Z" fill="black"/>
<path d="M230.487 73.7324C230.94 73.751 231.398 73.7721 231.858 73.7884C231.833 76.3458 231.85 78.9031 231.845 81.4605C231.38 81.4675 230.916 81.4815 230.456 81.4979C230.524 78.9102 230.448 76.3201 230.487 73.7324Z" fill="black"/>
<path d="M259.371 70.6892C259.929 70.7102 260.491 70.7242 261.057 70.7453C261.076 74.3279 261.059 77.9106 261.064 81.4932C260.491 81.4745 259.921 81.4652 259.354 81.4558C259.364 77.8662 259.327 74.2789 259.371 70.6892Z" fill="#231F20"/>
<path d="M115.487 70.8714C117.283 70.8761 119.076 70.8667 120.872 70.8737C121.783 70.8714 122.656 71.3245 123.211 72.0065C124.359 73.6016 123.72 76.236 121.682 76.8549C121.641 76.939 121.56 77.1072 121.521 77.1913C121.46 77.1329 121.335 77.0138 121.271 76.953C119.862 76.911 118.45 76.96 117.041 76.918C117.033 78.4291 117.029 79.9425 117.053 81.4535C116.529 81.4652 116.006 81.4746 115.485 81.4792C115.485 77.9433 115.482 74.4073 115.487 70.8714ZM117.038 72.1396C117.053 73.3377 117.021 74.5335 117.051 75.7316C118.448 75.7129 119.918 75.9838 121.264 75.5167C122.685 74.9679 122.568 72.6417 121.1 72.226C119.759 72.0158 118.389 72.1676 117.038 72.1396Z" fill="#211F20"/>
<path d="M153.003 71.572C153.475 71.572 153.949 71.5767 154.427 71.5744C154.424 72.296 154.424 73.0177 154.434 73.7394C154.85 73.73 155.268 73.7207 155.689 73.709C155.694 74.0687 155.692 74.4283 155.692 74.7903C155.271 74.7857 154.852 74.7857 154.434 74.7857C154.444 76.5396 154.38 78.2982 154.461 80.0522C154.571 80.6034 155.298 80.3722 155.706 80.4726C155.704 80.8159 155.701 81.1592 155.704 81.5049C154.977 81.5493 154.192 81.6871 153.526 81.3227C153.066 80.879 153.066 80.1947 153.025 79.6108C153.01 78.0063 153.017 76.4018 153.022 74.7973C152.665 74.795 152.31 74.7927 151.955 74.7927C151.938 74.44 151.921 74.085 151.904 73.7347C152.281 73.7254 152.658 73.7183 153.037 73.709C153.025 72.9967 153.015 72.2843 153.003 71.572Z" fill="#201F20"/>
<path d="M243.015 73.667C242.951 73.0528 243.497 73.7394 243.717 73.8235C243.717 74.1248 243.722 74.426 243.731 74.7297C244.637 73.8141 246.044 73.2606 247.345 73.6857C248.319 73.8912 248.926 74.7997 248.95 75.7176C249.009 77.628 248.943 79.5408 248.982 81.4535C248.525 81.4676 248.072 81.4792 247.619 81.4956C247.565 79.7673 247.644 78.0367 247.587 76.3084C247.612 75.6265 247.184 74.8207 246.398 74.7623C245.187 74.5405 243.979 75.4303 243.844 76.591C243.702 78.2095 243.802 79.8374 243.783 81.4629C243.318 81.4676 242.858 81.4746 242.4 81.4816C242.459 78.9032 242.425 76.3248 242.425 73.7464C242.572 73.7277 242.868 73.688 243.015 73.667Z" fill="#201F20"/>
<path d="M191.48 71.558C191.935 71.5651 192.392 71.5697 192.852 71.5721C192.837 72.2867 192.835 73.0014 192.847 73.716C193.266 73.7207 193.684 73.723 194.11 73.723C194.115 74.078 194.122 74.4354 194.132 74.7904C193.699 74.788 193.271 74.7857 192.842 74.7857C192.855 76.4766 192.811 78.1698 192.855 79.8631C192.801 80.531 193.635 80.4399 194.102 80.4726C194.112 80.8019 194.124 81.1289 194.139 81.4582C193.361 81.638 192.539 81.61 191.815 81.269C191.665 80.8813 191.467 80.4937 191.494 80.0709C191.489 78.3076 191.489 76.5443 191.492 74.781C191.117 74.7834 190.743 74.7857 190.374 74.7904C190.359 74.4354 190.344 74.0804 190.332 73.7254C190.719 73.7207 191.108 73.716 191.502 73.7137C191.489 72.9944 191.484 72.2774 191.48 71.558Z" fill="#221F1F"/>
<path d="M142.022 73.3657C142.034 73.4498 142.058 73.6203 142.071 73.7044C142.308 73.7067 142.785 73.709 143.022 73.709C143.047 76.2898 143.025 78.8682 143.04 81.4465C142.575 81.4652 142.11 81.4699 141.647 81.4792C141.682 78.9569 141.662 76.4346 141.657 73.9099C141.78 73.7301 141.902 73.5479 142.022 73.3657Z" fill="#212021"/>
<path d="M235.98 73.6647C237.324 73.2583 238.936 73.5946 239.89 74.6129C240.729 75.4186 240.886 76.6308 240.849 77.7168C240.815 79.055 240.313 80.503 239.102 81.2807C237.769 81.923 236.002 81.979 234.769 81.1009C233.561 80.2111 233.274 78.6486 233.372 77.2777C233.377 75.7246 234.37 74.1201 235.98 73.6647ZM236.394 74.7554C235.158 75.1033 234.843 76.4556 234.735 77.5206C234.708 78.5459 234.989 79.7113 235.902 80.3535C236.68 80.7249 237.705 80.7506 238.42 80.2251C239.063 79.8 239.195 78.9966 239.367 78.3217C239.538 77.2894 239.46 76.0936 238.723 75.2645C238.151 74.6269 237.189 74.6059 236.394 74.7554Z" fill="#212021"/>
<path d="M168.309 73.73C168.999 73.4638 169.772 73.6179 170.477 73.4031C170.531 73.4801 170.638 73.632 170.692 73.709C171.585 74.0477 172.102 74.9515 172.102 75.8483C172.212 77.7144 172.106 79.5875 172.155 81.4559C171.683 81.4699 171.211 81.4746 170.744 81.4979C170.734 79.7696 170.753 78.0414 170.736 76.3154C170.741 75.7129 170.462 74.9936 169.797 74.8161C168.534 74.4003 167.069 75.3182 166.973 76.591C166.919 78.2072 166.954 79.828 166.968 81.4465C166.504 81.4629 166.039 81.4792 165.579 81.4956C165.618 78.9008 165.618 76.3061 165.54 73.7114C165.982 73.7184 166.428 73.7277 166.875 73.7371C166.871 74.0664 166.866 74.398 166.863 74.7273C167.296 74.3396 167.729 73.9145 168.309 73.73Z" fill="#212020"/>
<path d="M145.45 74.3396C146.489 73.3704 148.163 73.2933 149.465 73.7814C150.389 74.1271 150.945 75.0239 151.028 75.9441C150.595 75.9441 150.159 75.9441 149.729 75.9441C149.467 74.5358 147.5 74.2906 146.448 75.0192C145.973 75.4677 146.237 76.2711 146.812 76.5046C148.097 77.0651 149.67 76.9881 150.791 77.8849C151.691 79.0059 151.163 80.7692 149.861 81.3788C148.569 81.9487 147.045 81.8342 145.751 81.3321C145.584 81.1826 145.418 81.0355 145.251 80.893C144.879 80.3278 144.63 79.6996 144.532 79.041C144.96 79.0456 145.388 79.0503 145.819 79.0526C146.027 80.7996 148.584 81.1312 149.69 79.9892C150.062 79.5338 149.846 78.9989 149.516 78.5925C148.183 78.1605 146.719 78.0344 145.501 77.3244C144.515 76.6214 144.635 75.1197 145.45 74.3396Z" fill="#212020"/>
<path d="M126.377 74.1248C127.466 73.4101 128.92 73.3961 130.16 73.716C130.901 73.9262 131.687 74.4471 131.743 75.2528C131.858 76.9274 131.689 78.6159 131.819 80.2928C132.01 80.5731 132.433 80.5007 132.732 80.6128C132.714 80.9164 132.702 81.2223 132.69 81.5306C132.069 81.5633 131.359 81.7291 130.826 81.3251C130.681 81.0682 130.571 80.7973 130.495 80.517C129.282 81.7034 127.151 82.2009 125.719 81.0705C125.575 80.8767 125.426 80.6875 125.274 80.5007C124.834 79.4474 125.042 78.0507 126.138 77.4458C127.405 76.8293 128.88 76.9367 130.243 76.6681C130.348 76.1309 130.64 75.421 130.084 75.0193C128.988 74.2392 126.732 74.5358 126.742 76.138C126.297 76.1169 125.851 76.0936 125.411 76.0679C125.546 75.3672 125.69 74.5381 126.377 74.1248ZM127.288 78.2306C126.571 78.4571 126.265 79.3259 126.627 79.9425C127.341 80.921 128.969 80.6268 129.808 79.9425C130.571 79.3703 130.385 78.3754 130.432 77.5649C129.429 77.9877 128.303 77.8802 127.288 78.2306Z" fill="#201F1F"/>
<path d="M158.106 74.029C159.503 73.3073 161.395 73.3097 162.714 74.1925C163.558 74.8254 163.328 75.9067 163.34 76.7966C163.367 78.0227 163.262 79.2582 163.435 80.4773C163.646 80.4983 164.062 80.5427 164.27 80.5637C164.27 80.886 164.27 81.2083 164.275 81.5329C163.621 81.617 162.929 81.6847 162.351 81.3227C162.258 81.0518 162.168 80.7833 162.077 80.517C161.14 81.4792 159.726 81.8623 158.38 81.7198C158.4 81.596 158.439 81.3484 158.459 81.2247C158.42 81.3251 158.344 81.5236 158.305 81.624C156.624 81.1686 156.115 78.8985 157.319 77.7611C158.576 76.7078 160.375 77.0885 161.865 76.605C161.926 76.4065 162.051 76.0118 162.112 75.8133C161.757 74.4003 159.736 74.3653 158.686 75.0683C158.561 75.4093 158.422 75.7456 158.307 76.0912C157.876 76.0912 157.446 76.0796 157.018 76.0726C157.142 75.3112 157.314 74.419 158.106 74.029ZM158.434 78.5131C157.693 79.2208 158.312 80.0756 158.779 80.7249L158.723 80.4399C159.817 80.83 161.162 80.4166 161.806 79.4894C162.055 78.8938 161.948 78.2282 161.994 77.6046C160.847 78.0554 159.45 77.7775 158.434 78.5131Z" fill="#201E1F"/>
<path d="M251.916 74.1388C253.553 73.1765 255.848 73.3821 257.25 74.6316C257.362 76.5724 257.186 78.5365 257.384 80.4796C257.665 80.51 257.949 80.5427 258.238 80.5754C258.223 80.8954 258.218 81.2177 258.214 81.5399C257.685 81.575 257.135 81.6918 256.628 81.5119C256.249 81.3157 256.168 80.886 256.019 80.5427C254.986 81.5983 253.225 82.1378 251.828 81.4372C250.264 80.7179 250.208 78.2679 251.718 77.4645C252.963 76.8269 254.443 77.0348 255.764 76.6424C255.904 76.3925 255.97 76.1123 256.075 75.8507C255.696 74.1224 252.327 74.2579 252.266 76.1309C251.833 76.1309 251.404 76.1543 250.979 76.159C251.099 75.4373 251.184 74.5545 251.916 74.1388ZM252.865 78.2562C252.266 78.4174 251.911 79.069 252.058 79.6342C252.133 80.2788 252.877 80.6011 253.484 80.6455C254.318 80.5801 255.189 80.2694 255.706 79.6062C256.036 78.9989 255.892 78.2843 255.936 77.6257C254.94 77.969 253.861 77.941 252.865 78.2562Z" fill="#201E1F"/>
<path d="M205.323 74.9468C205.908 74.1201 206.803 73.4171 207.917 73.5198C207.948 73.9916 207.973 74.4657 207.985 74.9422C206.85 74.7647 205.599 75.4349 205.467 76.5863C205.362 78.2048 205.453 79.8304 205.431 81.4512C204.973 81.4652 204.518 81.4839 204.065 81.5026C204.031 78.9125 204.073 76.3224 204.038 73.7324C204.464 73.7254 204.895 73.7207 205.328 73.7137C205.321 74.1247 205.321 74.5358 205.323 74.9468Z" fill="#212121"/>
<path d="M210.422 74.6969C211.359 73.7767 212.817 73.2349 214.131 73.7043C215.1 73.9286 215.638 74.9001 215.651 75.7969C215.756 77.6817 215.665 79.5734 215.702 81.4605C215.227 81.4675 214.753 81.4792 214.28 81.4885C214.293 79.7603 214.307 78.032 214.28 76.3061C214.322 75.5517 213.759 74.6642 212.881 74.739C211.658 74.6035 210.512 75.6218 210.512 76.7849C210.486 78.3496 210.508 79.9144 210.505 81.4815C210.043 81.4745 209.583 81.4745 209.125 81.4745C209.189 78.8891 209.14 76.3038 209.152 73.7184C209.585 73.7184 210.018 73.723 210.456 73.737C210.446 74.057 210.434 74.377 210.422 74.6969Z" fill="#212121"/>
<path d="M218.359 74.363C219.352 73.4731 220.867 73.3821 222.134 73.6857C223.02 73.8211 223.947 74.426 223.982 75.3532C224.062 77.0254 223.996 78.7023 224.018 80.3792C224.302 80.4493 224.588 80.517 224.88 80.5847C224.889 80.9024 224.904 81.22 224.919 81.5399C224.4 81.5726 223.854 81.6988 223.358 81.5072C222.944 81.3554 222.89 80.8907 222.717 80.5614C221.581 81.631 219.612 82.2406 218.232 81.2363C216.964 80.4026 216.967 78.338 218.259 77.5322C219.472 76.8036 220.975 77.0675 222.298 76.6774C222.805 76.3878 222.717 75.5774 222.45 75.1477C221.577 74.4517 220.194 74.5568 219.279 75.1337C219.166 75.4653 219.056 75.7993 218.961 76.1356C218.521 76.1029 218.08 76.0772 217.647 76.0375C217.787 75.4513 217.843 74.7764 218.359 74.363ZM219.685 78.2049C218.839 78.3637 218.423 79.4287 218.951 80.0803C219.228 80.4796 219.756 80.5287 220.194 80.6875C220.879 80.4983 221.65 80.3909 222.154 79.8584C222.805 79.2839 222.607 78.3497 222.663 77.5953C221.711 77.9783 220.664 77.9456 219.685 78.2049Z" fill="#1F1F1F"/>
</svg>
