<svg width="175" height="60" viewBox="0 0 298 115" fill="none" xmlns="http://www.w3.org/2000/svg">
<g clip-path="url(#clip0_410_49)">
<path fill-rule="evenodd" clip-rule="evenodd" d="M136.975 38.7196L130.008 48.1644V67.0542H150.901V76.505H130.008V85.9499H150.901L157.864 76.505V57.6153H136.975V48.1644H157.864V38.7196H136.975Z" fill="black"/>
<path fill-rule="evenodd" clip-rule="evenodd" d="M169.189 48.1704L162.23 57.6153V85.9499H176.152L183.119 76.4991L169.189 76.5056V57.6153H183.119V85.9499H190.082V48.1704H169.189Z" fill="black"/>
<path fill-rule="evenodd" clip-rule="evenodd" d="M277.107 48.1644L270.148 57.6093V85.9499H284.07L291.037 76.505H277.107V57.6153H291.037V85.9499H298V48.1644H277.107Z" fill="black"/>
<path fill-rule="evenodd" clip-rule="evenodd" d="M247.516 48.1644H233.586L226.623 57.6153V85.9499H240.548L247.516 76.505H233.586V57.6153H247.516V85.9499H254.479V29.2688H247.516V48.1644Z" fill="black"/>
<path fill-rule="evenodd" clip-rule="evenodd" d="M215.346 76.505H201.42V48.1704H194.457V85.9499H215.346L222.309 76.5109L222.313 48.1704H215.346V76.505Z" fill="black"/>
<path fill-rule="evenodd" clip-rule="evenodd" d="M258.836 38.7195H265.804V29.2688H258.836V38.7195Z" fill="black"/>
<path fill-rule="evenodd" clip-rule="evenodd" d="M258.836 85.9499H265.804V48.1704H258.836V85.9499Z" fill="black"/>
<path d="M62.8732 72.3121C62.7723 72.3897 62.6715 72.4747 62.5707 72.5523C66.0262 75.2471 69.4108 78.1157 72.8609 80.8141C74.9211 82.4258 76.9949 84.008 79.0742 85.5679L75.9948 90.196L72.5638 87.2425C68.596 83.8268 64.6145 80.4519 60.5867 77.173L59.5485 114.863L75.9866 90.2293C76.1201 90.3476 80.1125 93.8334 82.6005 94.5949C89.6805 96.7611 91.7216 94.9646 96.5561 93.5969C91.3074 93.0682 87.3832 92.3474 80.9246 87.1612C79.8427 86.2925 79.1941 85.6418 79.1042 85.5531L98.6217 56.2949C93.0215 56.5573 87.2524 57.1229 82.001 59.9323C75.2862 63.0485 69.0129 67.6211 62.8732 72.3121ZM63.3146 39.6936C63.3146 39.6936 65.2604 30.3561 63.3746 20.8781C64.9525 22.634 66.8301 25.1772 68.288 28.5374C70.3374 33.2542 70.9015 36.8768 70.9015 36.8768C70.9015 36.8768 71.7571 31.3283 70.4245 26.3342C69.9831 24.6967 68.9012 20.3754 66.7102 17.5549C68.4298 18.638 70.4736 20.2349 72.542 22.6192C76.0575 26.6596 78.1449 30.2859 78.1449 30.2859C78.1449 30.2859 77.4855 24.0757 74.9156 19.6361C71.9616 14.5348 67.9583 12.5165 65.0969 11.6737C66.8846 11.3558 68.9693 11.3299 71.2203 12.0397C75.7877 13.485 78.8289 16.6788 78.8289 16.6788C78.8289 16.6788 76.1038 10.8567 71.6209 8.17303C68.2881 6.18059 65.026 6.15841 62.4699 6.67963C62.6742 6.12514 62.9331 5.62241 63.271 5.20469C64.0586 4.22141 64.9416 3.65584 64.9416 3.65584C64.9416 3.65584 63.0476 3.01264 61.4016 3.84807C60.5541 4.28426 59.8837 4.92008 59.3823 5.52262C59.3196 4.9053 59.2351 4.25098 59.1097 3.55972C58.9162 2.48772 57.9843 0.195862 57.908 -5.34058e-05C57.8235 0.195862 56.8969 2.48772 56.7007 3.55972C56.5753 4.25098 56.4909 4.9053 56.4309 5.52262C55.924 4.92008 55.2564 4.28426 54.4116 3.84807C52.7629 3.01264 50.8716 3.65584 50.8716 3.65584C50.8716 3.65584 51.7545 4.22141 52.5421 5.20469C52.8773 5.62241 53.1389 6.12514 53.3433 6.67963C50.7844 6.15841 47.5224 6.18059 44.1922 8.17303C39.7066 10.8567 36.9815 16.6788 36.9815 16.6788C36.9815 16.6788 40.0228 13.485 44.5901 12.0397C46.8411 11.3299 48.9286 11.3558 50.7136 11.6737C47.8521 12.5165 43.8516 14.5348 40.8975 19.6361C38.325 24.0757 37.6682 30.2859 37.6682 30.2859C37.6682 30.2859 39.753 26.6596 43.2684 22.6192C45.3368 20.2349 47.3807 18.638 49.0975 17.5549C46.912 20.3754 45.8273 24.6967 45.3886 26.3342C44.056 31.3283 44.909 36.8768 44.909 36.8768C44.909 36.8768 45.473 33.2542 47.5196 28.5374C48.9803 25.1772 50.8607 22.634 52.4386 20.8781C50.5528 30.3561 52.4958 39.6936 52.4958 39.6936C52.4958 39.6936 53.6785 32.5075 55.4526 26.4156C56.2102 23.8243 57.0768 21.8688 57.908 20.4013C58.7337 21.8688 59.603 23.8243 60.3578 26.4156C62.1346 32.5075 63.3146 39.6936 63.3146 39.6936ZM115.27 29.6981L61.4915 44.318L60.8347 68.1571C67.9447 63.4736 75.1827 58.827 82.9439 56.5204C88.1272 54.9863 93.3976 55.038 98.6217 56.2949L115.692 30.7073C115.984 30.2711 115.698 29.5761 115.27 29.6981ZM32.8665 56.5204C40.6305 58.827 47.8658 63.4736 54.9757 68.1571L54.3189 44.318L0.54347 29.6981C0.115621 29.5761 -0.175968 30.2711 0.121074 30.7073L17.1887 56.2949C22.4128 55.038 27.686 54.9863 32.8665 56.5204ZM43.2493 87.2425L39.8156 90.196L36.7362 85.5679C38.8182 84.008 40.8921 82.4258 42.9496 80.8141C46.3969 78.1157 49.7843 75.2471 53.2425 72.5523C53.1416 72.4747 53.0408 72.3897 52.9373 72.3121C46.8002 67.6211 40.5269 63.0485 33.8121 59.9323C28.558 57.1229 22.7889 56.5573 17.1887 56.2949L36.7062 85.5531C36.6163 85.6418 35.9677 86.2925 34.8858 87.1612C28.4245 92.3474 24.5057 93.0682 19.2544 93.5969C24.0915 94.9646 26.1327 96.7611 33.2099 94.5949C35.6979 93.8334 39.6903 90.3476 39.8265 90.2293L56.2592 114.863L55.2237 77.173C51.1986 80.4519 47.2171 83.8268 43.2493 87.2425Z" fill="black"/>
</g>
<defs>
<clipPath id="clip0_410_49">
<rect width="298" height="115" fill="white"/>
</clipPath>
</defs>
</svg>
